<svg width="98" height="79" viewBox="0 0 98 79" fill="none" xmlns="http://www.w3.org/2000/svg">
<path d="M18.936 67.2471H15.8134V54.3961H19.6366L21.7184 61.262L23.8002 54.3961H27.6234V67.2471H24.5208V59.0801L22.9194 64.4647H20.5174L18.936 59.1202V67.2471ZM34.3075 54.3961H37.2701C39.2317 54.3961 40.2126 55.2235 40.2126 56.8783V64.765C40.2126 66.4197 39.2317 67.2471 37.2701 67.2471H34.3075C32.3459 67.2471 31.365 66.4197 31.365 64.765V56.8783C31.365 55.2235 32.3459 54.3961 34.3075 54.3961ZM36.7096 64.3046V57.3386C36.7096 57.0451 36.5428 56.8983 36.2092 56.8983H35.3684C35.0348 56.8983 34.868 57.0451 34.868 57.3386V64.3046C34.868 64.5982 35.0348 64.7449 35.3684 64.7449H36.2092C36.5428 64.7449 36.7096 64.5982 36.7096 64.3046ZM51.6948 54.3961V56.8983H49.2127V67.2471H45.7097V56.8983H43.2476V54.3961H51.6948ZM57.6727 54.3961H60.6352C62.5969 54.3961 63.5777 55.2235 63.5777 56.8783V64.765C63.5777 66.4197 62.5969 67.2471 60.6352 67.2471H57.6727C55.7111 67.2471 54.7302 66.4197 54.7302 64.765V56.8783C54.7302 55.2235 55.7111 54.3961 57.6727 54.3961ZM60.0748 64.3046V57.3386C60.0748 57.0451 59.908 56.8983 59.5743 56.8983H58.7336C58.4 56.8983 58.2332 57.0451 58.2332 57.3386V64.3046C58.2332 64.5982 58.4 64.7449 58.7336 64.7449H59.5743C59.908 64.7449 60.0748 64.5982 60.0748 64.3046ZM74.4795 60.6815L77.0017 67.2471H73.2385L70.8364 60.6815L73.2184 54.3961H76.9816L74.4795 60.6815ZM67.3134 67.2471V54.3961H70.8164V67.2471H67.3134Z" fill="#F14902"/>
<path d="M42.2685 78.6003H41.6755V73.9013H42.4186L43.2218 76.8138L44.025 73.9013H44.7681V78.6003H44.1751V75.1624L43.5296 77.5795H42.914L42.2685 75.1699V78.6003ZM47.0397 73.9013H47.8729C48.3383 73.9013 48.571 74.1215 48.571 74.5619V77.9398C48.571 78.3802 48.3383 78.6003 47.8729 78.6003H47.0397C46.5693 78.6003 46.3341 78.3802 46.3341 77.9398V74.5619C46.3341 74.1215 46.5693 73.9013 47.0397 73.9013ZM47.8955 77.8347V74.667C47.8955 74.5769 47.8805 74.5194 47.8504 74.4943C47.8204 74.4643 47.7603 74.4493 47.6703 74.4493H47.2349C47.1448 74.4493 47.0848 74.4643 47.0547 74.4943C47.0297 74.5194 47.0172 74.5769 47.0172 74.667V77.8347C47.0172 77.9248 47.0297 77.9848 47.0547 78.0148C47.0848 78.0399 47.1448 78.0524 47.2349 78.0524H47.6703C47.7603 78.0524 47.8204 78.0399 47.8504 78.0148C47.8805 77.9848 47.8955 77.9248 47.8955 77.8347ZM52.0433 73.9013V74.4493H51.2552V78.6003H50.5796V74.4493H49.7914V73.9013H52.0433ZM53.9617 73.9013H54.7949C55.2603 73.9013 55.493 74.1215 55.493 74.5619V77.9398C55.493 78.3802 55.2603 78.6003 54.7949 78.6003H53.9617C53.4913 78.6003 53.2561 78.3802 53.2561 77.9398V74.5619C53.2561 74.1215 53.4913 73.9013 53.9617 73.9013ZM54.8175 77.8347V74.667C54.8175 74.5769 54.8025 74.5194 54.7724 74.4943C54.7424 74.4643 54.6823 74.4493 54.5923 74.4493H54.1569C54.0668 74.4493 54.0068 74.4643 53.9767 74.4943C53.9517 74.5194 53.9392 74.5769 53.9392 74.667V77.8347C53.9392 77.9248 53.9517 77.9848 53.9767 78.0148C54.0068 78.0399 54.0668 78.0524 54.1569 78.0524H54.5923C54.6823 78.0524 54.7424 78.0399 54.7724 78.0148C54.8025 77.9848 54.8175 77.9248 54.8175 77.8347ZM59.6524 76.7012V78.6003H58.9768V73.9013H60.5156C60.981 73.9013 61.2137 74.1215 61.2137 74.5619V76.0332C61.2137 76.4135 61.0461 76.6312 60.7108 76.6862L61.4539 78.6003H60.7258L60.0202 76.7012H59.6524ZM59.6524 74.4493V76.1608H60.313C60.403 76.1608 60.4631 76.1483 60.4931 76.1232C60.5231 76.0932 60.5381 76.0332 60.5381 75.9431V74.667C60.5381 74.5769 60.5231 74.5194 60.4931 74.4943C60.4631 74.4643 60.403 74.4493 60.313 74.4493H59.6524ZM63.4618 78.0524H64.8204V78.6003H62.7787V73.9013H64.7679V74.4493H63.4618V75.898H64.5427V76.446H63.4618V78.0524ZM67.8513 73.9013H68.4743V78.6003H67.7913L66.8004 75.2075V78.6003H66.1774V73.9013H66.8905L67.8513 77.1966V73.9013ZM71.981 73.9013V74.4493H71.1928V78.6003H70.5172V74.4493H69.7291V73.9013H71.981ZM74.9578 78.6003L74.7701 77.5119H73.7793L73.6066 78.6003H72.9311L73.7643 73.9013H74.7476L75.6409 78.6003H74.9578ZM73.8619 76.964H74.6801L74.2522 74.4868L73.8619 76.964ZM77.6208 78.0524H78.7843V78.6003H76.9452V73.9013H77.6208V78.0524Z" fill="#F14902"/>
<path fill-rule="evenodd" clip-rule="evenodd" d="M76.0117 42.6327C64.4698 42.3676 55.1829 32.9406 55.1585 21.3298C55.1351 10.2201 63.6002 1.07423 74.4408 0.0305711C73.9911 0.0290652 73.5629 0.030332 73.1648 0.0315097C73.0305 0.031907 72.8997 0.0322942 72.7725 0.0325614L64.4304 0.0500969L50.9231 0.0784896L46.3817 0.0880358L35.0866 0.111778L19.7666 0.143981L7.79911 0.169137L2.0298 0.181265L9.93715e-07 0.185531L11.8091 11.5801L40.8178 11.5124C42.3869 11.5091 43.6658 12.5857 43.6686 13.9122C43.6714 15.2387 42.397 16.3207 40.828 16.324L15.4542 16.3841L25.3861 26.1677L48.1675 26.1131C49.7365 26.1098 51.0154 27.1865 51.0182 28.5129C51.021 29.8394 49.7466 30.9214 48.1776 30.9247L30.0389 30.9696L41.3744 42.7277L75.9145 42.7277L76.0117 42.6327Z" fill="url(#paint0_linear_1115_5296)"/>
<ellipse rx="11.6691" ry="11.6092" transform="matrix(0.999998 -0.0020896 0.00211495 0.999998 76.4077 21.1617)" fill="url(#paint1_linear_1115_5296)"/>
<defs>
<linearGradient id="paint0_linear_1115_5296" x1="6.0028" y1="40.873" x2="65.2009" y2="-3.29153" gradientUnits="userSpaceOnUse">
<stop stop-color="#FE1D16"/>
<stop offset="0.229167" stop-color="#FD3C14"/>
<stop offset="0.744792" stop-color="#FA7311"/>
<stop offset="1" stop-color="#FA7311"/>
</linearGradient>
<linearGradient id="paint1_linear_1115_5296" x1="1.81894" y1="22.13" x2="25.8607" y2="12.0342" gradientUnits="userSpaceOnUse">
<stop stop-color="#FE1D16"/>
<stop offset="0.229167" stop-color="#FD3C14"/>
<stop offset="0.744792" stop-color="#FA7311"/>
<stop offset="1" stop-color="#FA7311"/>
</linearGradient>
</defs>
</svg>
