<svg width="162" height="43" viewBox="0 0 162 43" fill="none" xmlns="http://www.w3.org/2000/svg">
<path d="M97.9233 25H94.8007V12.1491H98.6239L100.706 19.0149L102.787 12.1491H106.611V25H103.508V16.8331L101.907 22.2176H99.5047L97.9233 16.8731V25ZM113.295 12.1491H116.257C118.219 12.1491 119.2 12.9764 119.2 14.6312V22.5179C119.2 24.1726 118.219 25 116.257 25H113.295C111.333 25 110.352 24.1726 110.352 22.5179V14.6312C110.352 12.9764 111.333 12.1491 113.295 12.1491ZM115.697 22.0575V15.0916C115.697 14.798 115.53 14.6512 115.196 14.6512H114.356C114.022 14.6512 113.855 14.798 113.855 15.0916V22.0575C113.855 22.3511 114.022 22.4979 114.356 22.4979H115.196C115.53 22.4979 115.697 22.3511 115.697 22.0575ZM130.682 12.1491V14.6512H128.2V25H124.697V14.6512H122.235V12.1491H130.682ZM136.66 12.1491H139.623C141.584 12.1491 142.565 12.9764 142.565 14.6312V22.5179C142.565 24.1726 141.584 25 139.623 25H136.66C134.698 25 133.718 24.1726 133.718 22.5179V14.6312C133.718 12.9764 134.698 12.1491 136.66 12.1491ZM139.062 22.0575V15.0916C139.062 14.798 138.895 14.6512 138.562 14.6512H137.721C137.387 14.6512 137.221 14.798 137.221 15.0916V22.0575C137.221 22.3511 137.387 22.4979 137.721 22.4979H138.562C138.895 22.4979 139.062 22.3511 139.062 22.0575ZM153.467 18.4344L155.989 25H152.226L149.824 18.4344L152.206 12.1491H155.969L153.467 18.4344ZM146.301 25V12.1491H149.804V25H146.301Z" fill="#F14902"/>
<path d="M121.256 36.3532H120.663V31.6542H121.406L122.209 34.5667L123.012 31.6542H123.755V36.3532H123.162V32.9153L122.517 35.3323H121.901L121.256 32.9228V36.3532ZM126.027 31.6542H126.86C127.326 31.6542 127.558 31.8744 127.558 32.3148V35.6926C127.558 36.133 127.326 36.3532 126.86 36.3532H126.027C125.557 36.3532 125.321 36.133 125.321 35.6926V32.3148C125.321 31.8744 125.557 31.6542 126.027 31.6542ZM126.883 35.5875V32.4199C126.883 32.3298 126.868 32.2722 126.838 32.2472C126.808 32.2172 126.748 32.2022 126.657 32.2022H126.222C126.132 32.2022 126.072 32.2172 126.042 32.2472C126.017 32.2722 126.004 32.3298 126.004 32.4199V35.5875C126.004 35.6776 126.017 35.7377 126.042 35.7677C126.072 35.7927 126.132 35.8052 126.222 35.8052H126.657C126.748 35.8052 126.808 35.7927 126.838 35.7677C126.868 35.7377 126.883 35.6776 126.883 35.5875ZM131.031 31.6542V32.2022H130.242V36.3532H129.567V32.2022H128.779V31.6542H131.031ZM132.949 31.6542H133.782C134.248 31.6542 134.48 31.8744 134.48 32.3148V35.6926C134.48 36.133 134.248 36.3532 133.782 36.3532H132.949C132.479 36.3532 132.243 36.133 132.243 35.6926V32.3148C132.243 31.8744 132.479 31.6542 132.949 31.6542ZM133.805 35.5875V32.4199C133.805 32.3298 133.79 32.2722 133.76 32.2472C133.73 32.2172 133.67 32.2022 133.579 32.2022H133.144C133.054 32.2022 132.994 32.2172 132.964 32.2472C132.939 32.2722 132.926 32.3298 132.926 32.4199V35.5875C132.926 35.6776 132.939 35.7377 132.964 35.7677C132.994 35.7927 133.054 35.8052 133.144 35.8052H133.579C133.67 35.8052 133.73 35.7927 133.76 35.7677C133.79 35.7377 133.805 35.6776 133.805 35.5875ZM138.64 34.4541V36.3532H137.964V31.6542H139.503C139.968 31.6542 140.201 31.8744 140.201 32.3148V33.786C140.201 34.1663 140.033 34.384 139.698 34.4391L140.441 36.3532H139.713L139.007 34.4541H138.64ZM138.64 32.2022V33.9136H139.3C139.39 33.9136 139.45 33.9011 139.48 33.8761C139.51 33.8461 139.525 33.786 139.525 33.6959V32.4199C139.525 32.3298 139.51 32.2722 139.48 32.2472C139.45 32.2172 139.39 32.2022 139.3 32.2022H138.64ZM142.449 35.8052H143.808V36.3532H141.766V31.6542H143.755V32.2022H142.449V33.6509H143.53V34.1989H142.449V35.8052ZM146.838 31.6542H147.462V36.3532H146.778L145.788 32.9603V36.3532H145.165V31.6542H145.878L146.838 34.9495V31.6542ZM150.968 31.6542V32.2022H150.18V36.3532H149.504V32.2022H148.716V31.6542H150.968ZM153.945 36.3532L153.757 35.2648H152.766L152.594 36.3532H151.918L152.751 31.6542H153.735L154.628 36.3532H153.945ZM152.849 34.7168H153.667L153.239 32.2397L152.849 34.7168ZM156.608 35.8052H157.771V36.3532H155.932V31.6542H156.608V35.8052Z" fill="#F14902"/>
<path fill-rule="evenodd" clip-rule="evenodd" d="M76.0118 42.6327C64.4698 42.3676 55.1829 32.9406 55.1585 21.3297C55.1351 10.2201 63.6002 1.0742 74.4408 0.0305473C73.9911 0.0290414 73.5629 0.0303081 73.1648 0.0314859C73.0305 0.0318832 72.8997 0.0322704 72.7726 0.0325376L64.4304 0.050073L50.9231 0.0784657L46.3817 0.0880119L35.0866 0.111754L19.7667 0.143957L7.79912 0.169114L2.02981 0.181241L1.62025e-05 0.185508L11.8091 11.5801L40.8179 11.5124C42.3869 11.5091 43.6658 12.5857 43.6686 13.9122C43.6714 15.2387 42.397 16.3207 40.828 16.324L15.4543 16.3841L25.3861 26.1677L48.1675 26.1131C49.7365 26.1098 51.0155 27.1864 51.0182 28.5129C51.021 29.8394 49.7466 30.9214 48.1776 30.9247L30.0389 30.9696L41.3744 42.7277L75.9145 42.7277L76.0118 42.6327Z" fill="url(#paint0_linear_1080_5325)"/>
<ellipse rx="11.6691" ry="11.6092" transform="matrix(0.999998 -0.0020896 0.00211495 0.999998 76.4076 21.1616)" fill="url(#paint1_linear_1080_5325)"/>
<defs>
<linearGradient id="paint0_linear_1080_5325" x1="6.0028" y1="40.873" x2="65.2009" y2="-3.29153" gradientUnits="userSpaceOnUse">
<stop stop-color="#FE1D16"/>
<stop offset="0.229167" stop-color="#FD3C14"/>
<stop offset="0.744792" stop-color="#FA7311"/>
<stop offset="1" stop-color="#FA7311"/>
</linearGradient>
<linearGradient id="paint1_linear_1080_5325" x1="1.81894" y1="22.13" x2="25.8607" y2="12.0342" gradientUnits="userSpaceOnUse">
<stop stop-color="#FE1D16"/>
<stop offset="0.229167" stop-color="#FD3C14"/>
<stop offset="0.744792" stop-color="#FA7311"/>
<stop offset="1" stop-color="#FA7311"/>
</linearGradient>
</defs>
</svg>
